
<svg version="1.0" xmlns="http://www.w3.org/2000/svg"
 width="560.000000pt" height="628.000000pt" viewBox="0 0 560.000000 628.000000"
 preserveAspectRatio="xMidYMid meet">
<g transform="translate(0.000000,628.000000) scale(0.100000,-0.100000)"
fill="rgba(247,231,221,1)" stroke="none">
<path d="M2833 5359 c-36 -11 -93 -42 -138 -75 -96 -68 -117 -73 -186 -41
-102 46 -130 52 -249 52 -94 0 -128 -4 -184 -23 -131 -44 -245 -112 -383 -230
-35 -29 -62 -63 -79 -100 -15 -32 -44 -76 -65 -99 -45 -49 -80 -116 -103 -197
-13 -45 -30 -72 -70 -115 -29 -31 -65 -75 -80 -99 -59 -95 -96 -238 -96 -376
0 -83 -2 -90 -29 -122 -55 -63 -66 -220 -21 -321 28 -63 26 -78 -21 -149 -30
-46 -43 -78 -49 -122 -8 -60 0 -159 18 -218 25 -80 97 -171 164 -205 22 -11
38 -27 38 -37 0 -9 7 -86 16 -171 8 -85 21 -231 29 -325 13 -164 15 -172 40
-193 15 -14 39 -23 59 -23 67 0 167 -91 182 -167 7 -38 -10 -73 -37 -73 -30 0
-33 -24 -10 -98 37 -121 124 -182 262 -182 34 0 61 -5 67 -13 6 -7 25 -53 42
-103 53 -149 122 -252 210 -310 45 -30 68 -32 224 -22 37 3 40 1 65 -44 35
-63 87 -115 129 -129 22 -7 65 -9 110 -6 66 5 79 3 105 -15 40 -28 114 -35
155 -14 23 12 45 15 85 10 80 -9 158 11 218 56 29 21 69 42 90 45 53 9 101 43
123 88 10 21 16 40 14 42 -2 2 -26 -7 -54 -21 -28 -14 -57 -22 -66 -19 -9 4
-18 24 -22 51 -14 102 -86 202 -179 249 -47 23 -87 32 -87 20 0 -3 16 -29 34
-58 42 -63 61 -132 53 -197 -6 -51 -31 -110 -47 -110 -5 0 -20 18 -33 40 l-24
41 -6 -52 c-8 -62 -17 -74 -50 -65 -34 8 -127 104 -160 163 -37 70 -60 165
-53 222 l6 46 -25 -30 c-53 -63 -70 -195 -38 -294 9 -28 13 -54 10 -57 -24
-24 -143 82 -177 159 -24 53 -26 162 -4 236 8 29 13 55 11 57 -2 3 -28 -10
-57 -28 -41 -25 -63 -32 -105 -32 -62 -1 -91 16 -142 83 -37 47 -43 77 -15 68
85 -28 133 -39 147 -33 15 5 9 14 -29 49 -36 34 -46 50 -46 75 0 45 48 96 105
112 24 7 61 27 81 44 41 35 43 47 29 163 -6 46 -5 63 4 63 6 0 14 -8 17 -17 3
-10 19 -49 35 -88 16 -38 29 -80 29 -93 0 -34 -24 -84 -53 -111 -32 -29 -26
-42 16 -34 60 10 113 49 137 99 20 41 22 56 17 130 -3 46 -2 84 3 84 15 0 50
-51 62 -91 10 -34 8 -50 -16 -126 -32 -107 -33 -155 -3 -213 23 -48 87 -90
135 -90 22 0 23 3 16 28 -5 15 -9 53 -8 84 0 46 6 65 32 105 65 99 92 164 92
225 0 52 -3 61 -34 91 -37 37 -108 61 -216 72 -81 9 -110 26 -110 65 0 54 29
62 182 54 90 -4 147 -3 175 5 73 20 79 69 16 134 -55 57 -85 62 -291 48 -97
-6 -194 -14 -216 -17 -56 -9 -43 14 30 51 54 27 69 30 186 33 84 3 161 -1 228
-12 148 -23 160 -22 160 13 0 16 5 42 11 58 l11 28 19 -51 c24 -63 37 -75 133
-124 88 -44 89 -43 56 63 -23 74 -47 94 -57 47 -8 -43 -28 -23 -44 43 -10 42
-24 64 -73 116 -74 77 -125 108 -217 131 -83 22 -99 33 -83 58 11 16 45 21 89
11 48 -10 24 107 -34 171 -44 49 -56 80 -76 216 -26 170 -17 342 20 417 19 39
19 53 -3 85 -25 36 -33 60 -23 67 5 2 14 -2 21 -10 19 -23 107 -45 179 -45 86
0 181 14 311 46 120 29 221 32 294 9 37 -11 52 -12 63 -4 22 19 15 35 -32 77
-65 57 -112 68 -243 54 -130 -15 -339 -16 -347 -2 -3 5 7 12 22 16 186 41 257
88 234 155 -6 17 -23 47 -39 67 -16 20 -52 85 -80 143 -66 135 -133 202 -279
277 -120 62 -230 139 -216 153 6 6 37 1 84 -15 41 -14 113 -30 160 -36 101
-12 175 -33 243 -67 87 -44 103 -9 29 65 -60 60 -113 84 -258 122 -119 30
-226 72 -246 96 -15 18 -15 18 97 -11 53 -14 113 -25 133 -25 56 0 145 -26
261 -77 164 -71 188 -80 300 -103 177 -37 237 -67 356 -183 95 -91 126 -137
92 -137 -6 0 -46 22 -87 49 -42 27 -97 56 -122 66 -25 9 -70 37 -100 61 -30
25 -65 51 -79 59 -59 31 -190 31 -190 -1 0 -9 20 -41 44 -72 94 -122 215 -231
310 -279 68 -34 184 -153 224 -231 43 -80 112 -148 202 -197 83 -45 114 -80
167 -190 29 -60 44 -80 58 -80 18 0 20 8 23 65 5 115 -55 245 -145 312 -67 49
-86 88 -118 243 -28 135 -39 158 -144 298 -103 138 -124 174 -156 273 -50 157
-110 210 -285 253 -86 21 -129 41 -321 144 -175 94 -337 120 -476 76z m432
-134 c47 -14 131 -48 188 -76 73 -37 128 -57 197 -71 121 -24 151 -38 190 -90
32 -45 58 -113 46 -125 -3 -4 -25 12 -49 34 -68 67 -153 103 -287 123 -118 17
-163 36 -231 97 -65 58 -92 72 -195 104 -154 48 -22 51 141 4z m-975 -275 c0
-6 -51 -61 -113 -123 -132 -132 -144 -158 -134 -282 4 -41 3 -75 -2 -75 -5 0
-16 18 -25 40 -15 38 -29 49 -40 32 -3 -5 -23 -78 -45 -163 -22 -85 -56 -196
-75 -247 -20 -52 -36 -104 -36 -117 0 -38 35 -55 115 -55 80 0 201 -18 360
-55 165 -37 239 -31 295 25 30 30 37 18 13 -22 -47 -81 -165 -103 -393 -74
-194 26 -302 31 -354 16 -61 -17 -118 -68 -147 -132 -22 -50 -24 -65 -23 -238
0 -200 17 -325 69 -504 14 -49 24 -91 21 -93 -10 -10 -28 10 -58 63 -19 35
-36 54 -46 52 -19 -4 -34 -53 -26 -84 3 -13 -6 -51 -21 -90 -34 -84 -31 -145
9 -202 24 -35 26 -46 26 -139 0 -124 23 -205 81 -288 l41 -59 -18 -53 c-10
-29 -23 -53 -29 -53 -7 0 -18 26 -25 58 -14 66 -91 242 -127 289 -15 21 -38
36 -64 43 -25 7 -44 19 -50 33 -7 16 0 123 26 386 20 200 34 365 31 368 -11
12 -38 -9 -68 -54 -18 -26 -47 -63 -64 -82 -28 -31 -34 -33 -48 -22 -35 29
-14 87 72 203 55 74 69 112 51 134 -36 44 -106 -10 -165 -128 -35 -70 -54 -80
-54 -27 0 50 28 101 94 169 72 75 96 107 96 132 0 15 -9 18 -54 18 -88 0 -88
12 9 129 88 106 109 146 84 162 -17 10 -34 6 -116 -28 -73 -29 -104 -26 -81
10 24 36 71 62 172 97 54 19 105 43 117 56 21 22 21 27 10 62 -17 50 -10 64
85 164 80 84 87 102 54 156 -29 47 -70 45 -116 -7 -48 -53 -139 -93 -201 -89
-66 4 -64 27 4 46 38 10 67 28 108 67 60 57 175 122 268 151 58 18 75 34 35
34 -13 0 -40 5 -61 11 -57 15 -45 38 35 65 122 41 207 93 296 182 105 105 202
169 202 132z m75 -1165 c61 -17 135 -63 158 -98 23 -36 11 -34 -59 8 -116 70
-227 94 -339 72 l-40 -7 29 16 c60 33 149 36 251 9z m22 -80 c53 -23 103 -63
103 -85 0 -35 -199 -101 -299 -99 -20 0 -53 6 -75 12 -36 11 -33 12 55 13 76
1 108 6 169 29 120 44 126 63 32 114 -59 32 -49 42 15 16z m233 -116 c-14
-107 -63 -213 -122 -264 -64 -54 -178 -104 -178 -77 0 4 13 15 28 24 43 25
129 114 168 173 36 53 83 174 84 211 0 25 11 37 22 26 6 -6 5 -45 -2 -93z
m-120 -499 c-11 -21 -20 -52 -20 -68 0 -29 -21 -49 -178 -176 -40 -32 -37 -8
10 61 47 71 183 223 199 223 5 0 0 -18 -11 -40z m156 -116 c64 -38 66 -48 9
-41 -55 8 -95 30 -95 52 0 23 36 18 86 -11z m-657 -506 c1 -91 -18 -149 -59
-178 -35 -25 -52 -25 -74 -1 -16 17 -16 22 -3 48 8 15 25 37 37 48 27 24 70
111 70 142 0 12 3 29 7 39 12 31 22 -13 22 -98z m117 -35 c-8 -68 -47 -143
-86 -166 -42 -25 -45 -21 -11 18 39 44 67 99 82 159 16 63 23 58 15 -11z m130
-268 c-9 -29 -32 -87 -51 -127 -20 -40 -38 -90 -42 -111 -3 -20 -9 -40 -14
-42 -12 -8 -22 78 -14 115 8 37 4 36 -61 -16 -23 -19 -58 -58 -78 -89 -40 -60
-51 -69 -36 -30 30 79 74 134 160 200 63 49 114 117 133 180 l12 40 3 -33 c2
-18 -4 -57 -12 -87z"/>
<path d="M3186 3794 c-57 -18 -58 -28 -1 -13 94 26 209 -5 296 -79 33 -29 39
-31 39 -15 0 27 -35 57 -105 89 -73 34 -158 41 -229 18z"/>
<path d="M3164 3759 c-39 -20 -71 -104 -51 -137 12 -18 181 -16 244 3 28 8 61
23 73 33 l22 18 -37 28 c-71 54 -195 81 -251 55z"/>
<path d="M3475 3635 c-51 -41 -142 -58 -284 -54 -143 5 -156 -3 -90 -51 102
-73 268 -91 346 -37 46 32 83 92 83 136 0 37 -14 39 -55 6z"/>

</g>
</svg>
